f3581bf0b1cf291662fc4e087b930c84 *tests/data/fate/pcm_dvd-24-7.1-48000.vob
126976 tests/data/fate/pcm_dvd-24-7.1-48000.vob
#tb 0: 1/48000
#media_type 0: audio
#codec_id 0: pcm_s24le
#sample_rate 0: 48000
#channel_layout_name 0: 7.1
0,          0,          0,       83,     1992, 0x07f25ccf
0,         83,         83,       83,     1992, 0x820309d5
0,        166,        166,       83,     1992, 0x4f0b1c4f
0,        249,        249,       83,     1992, 0xe6791628
0,        332,        332,       83,     1992, 0xb498e297
0,        415,        415,       83,     1992, 0xecb54408
0,        498,        498,       83,     1992, 0xc9715746
0,        581,        581,       83,     1992, 0x945481b0
0,        664,        664,       83,     1992, 0xc3c9a8aa
0,        747,        747,       83,     1992, 0xd2f47523
0,        830,        830,       83,     1992, 0x2814f450
0,        913,        913,       83,     1992, 0x6085a1cb
0,        996,        996,       83,     1992, 0x625b2279
0,       1079,       1079,       83,     1992, 0xc094f133
0,       1162,       1162,       83,     1992, 0x14a3d1ec
0,       1245,       1245,       83,     1992, 0xfe5fb1c1
0,       1328,       1328,       83,     1992, 0x84414c88
0,       1411,       1411,       83,     1992, 0x2e054afe
0,       1494,       1494,       83,     1992, 0xae901ffe
0,       1577,       1577,       83,     1992, 0x2657fa0a
0,       1660,       1660,       83,     1992, 0x09504b60
0,       1743,       1743,       83,     1992, 0xbae28d8d
0,       1826,       1826,       83,     1992, 0x51a2d108
0,       1909,       1909,       83,     1992, 0x0d715388
0,       1992,       1992,       83,     1992, 0x15ee40e6
0,       2075,       2075,       83,     1992, 0xf9944d76
0,       2158,       2158,       83,     1992, 0xf018f40e
0,       2241,       2241,       83,     1992, 0xc975e78d
0,       2324,       2324,       83,     1992, 0xf86b634d
0,       2407,       2407,       83,     1992, 0xd3ace8f0
0,       2490,       2490,       83,     1992, 0xb7b3783d
0,       2573,       2573,       83,     1992, 0x31b996ae
0,       2656,       2656,       83,     1992, 0xcaa8b1d1
0,       2739,       2739,       83,     1992, 0x9f7d068e
0,       2822,       2822,       83,     1992, 0x3d52215a
0,       2905,       2905,       83,     1992, 0xd9445472
0,       2988,       2988,       83,     1992, 0xe20bf044
0,       3071,       3071,       83,     1992, 0xf6d9a9ab
0,       3154,       3154,       83,     1992, 0xe9b1ca93
0,       3237,       3237,       83,     1992, 0xf704e3ae
0,       3320,       3320,       83,     1992, 0xc765ad45
0,       3403,       3403,       83,     1992, 0x2408aeb8
0,       3486,       3486,       83,     1992, 0x7f151863
0,       3569,       3569,       83,     1992, 0xd3c51b0a
0,       3652,       3652,       83,     1992, 0x2525f59a
0,       3735,       3735,       83,     1992, 0x2e5483a0
0,       3818,       3818,       83,     1992, 0x20fba8da
0,       3901,       3901,       83,     1992, 0xc58094a4
0,       3984,       3984,       83,     1992, 0xfc4c12d1
0,       4067,       4067,       83,     1992, 0x8e9f4033
0,       4150,       4150,       83,     1992, 0xd71ae1b1
0,       4233,       4233,       83,     1992, 0x2b2c185d
0,       4316,       4316,       83,     1992, 0x1ae9c95c
0,       4399,       4399,       83,     1992, 0x1cca11d1
0,       4482,       4482,       83,     1992, 0x4f5a930f
0,       4565,       4565,       83,     1992, 0xb1944352
0,       4648,       4648,       83,     1992, 0x027ff599
0,       4731,       4731,       83,     1992, 0x024a65de
0,       4814,       4814,       83,     1992, 0x06559979
0,       4897,       4897,       83,     1992, 0x335591ad
0,       4980,       4980,       83,     1992, 0x29e3dfd2
0,       5063,       5063,       57,     1368, 0xd8c3d35e
